HIERARCHY
ROOT Hips
{
	OFFSET 0.00000 0.00000 0.00000
	CHANNELS 6 Xposition Yposition Zposition Yrotation Zrotation Xrotation 
	JOINT Lumbar
	{
		OFFSET 0 0 0
		CHANNELS 3 Zrotation Xrotation Yrotation
		JOINT Neck
		{
			OFFSET 0.00 0.2701 0.00
			CHANNELS 3 Zrotation Xrotation Yrotation
			End Site
			{
				OFFSET 0.00 0.1379 0.00
			}
		}
		JOINT RightShoulder
		{
			OFFSET 0.0119 0.2289 0.1181
			CHANNELS 3 Zrotation Xrotation Yrotation
			JOINT RightElbow
			{
				OFFSET 0.00 -0.1475 0.00
				CHANNELS 2 Zrotation Yrotation
				JOINT RightWrist
				{
					OFFSET 0.00 -0.1605 0.00
					CHANNELS 2 Zrotation Xrotation
					End Site
					{
						OFFSET 0.0040 -0.1068 0.0006
					}
				}
			}
		}
		JOINT LeftShoulder
		{
			OFFSET 0.0119 0.2289 -0.1181
			CHANNELS 3 Zrotation Xrotation Yrotation
			JOINT LeftElbow
			{
				OFFSET 0.00 -0.1475 0.00
				CHANNELS 2 Zrotation Yrotation
				JOINT LeftWrist
				{
					OFFSET 0.00 -0.1605 0.00
					CHANNELS 2 Zrotation Xrotation
					End Site
					{
						OFFSET 0.0040 -0.1068 -0.0006
					}
				}
			}
		}
	}
	JOINT RightHip
	{
		OFFSET 0.0316 -0.0424 0.0458
		CHANNELS 3 Zrotation Xrotation Yrotation
		JOINT RightKnee
		{
			OFFSET 0.00 -0.2438 0.00
			CHANNELS 1 Zrotation
			JOINT RightAnkle
			{
				OFFSET 0.00 -0.2449 0.00
				CHANNELS 3 Zrotation Xrotation Yrotation
				End Site
				{
					OFFSET 0.1237 -0.0542 0.0051
				}
			}
		}
	}
	JOINT LeftHip
	{
		OFFSET 0.0316 -0.0424 -0.0458
		CHANNELS 3 Zrotation Xrotation Yrotation
		JOINT LeftKnee
		{
			OFFSET 0.00 -0.2438 0.00
			CHANNELS 1 Zrotation
			JOINT LeftAnkle
			{
				OFFSET 0.00 -0.2449 0.00
				CHANNELS 3 Zrotation Xrotation Yrotation
				End Site
				{
					OFFSET 0.1237 -0.0542 -0.0051
				}
			}
		}
	}
}
MOTION
Frames: 14
Frame Time: 0.02
-0.08553 0.57852 0.10396 166.65785 0 -4.38105 4.34209 4.79379 -9.03512 -57.35857 4.65978 4.82395 61.76643 -51.53184 0.98172 84.06968 64.91259 22.65795 -5.83785 59.30307 34.45335 -1.7486 88.10032 -61.84834 23.39005 6.30995 10.73438 1.1062 -2.47702 -14.61097 -18.03351 -0.562 -12.1593 -3.50945 -0.33259 18.48174 -6.73094 -2.16275 3.25118 10.04605
-0.08552 0.57855 0.10401 166.71641 0 -4.37631 4.36636 4.80229 -9.03749 -57.37878 4.69457 4.84842 61.9044 -51.56161 1.13073 84.12718 64.98061 22.57904 -5.83358 59.33646 34.44201 -1.79472 88.06993 -61.91762 23.34985 6.30325 10.73228 1.08953 -2.51222 -14.62465 -18.03447 -0.55842 -12.17496 -3.50354 -0.33843 18.43144 -6.72602 -2.19254 3.24224 10.04612
-0.08554 0.57859 0.10405 166.747 0 -4.37602 4.38154 4.81828 -9.03767 -57.35355 4.71778 4.88941 62.08452 -51.62102 1.31943 84.1811 65.08041 22.4605 -5.82799 59.37576 34.42753 -1.86929 88.06127 -61.99897 23.28839 6.2976 10.73229 1.08111 -2.5299 -14.63599 -18.04241 -0.55274 -12.1884 -3.50643 -0.34188 18.40596 -6.71347 -2.22443 3.23424 10.04547
-0.08555 0.57862 0.10409 166.78829 0 -4.37317 4.40011 4.83023 -9.03741 -57.3508 4.74531 4.92172 62.2464 -51.66212 1.48902 84.23736 65.1634 22.35913 -5.82345 59.41296 34.41641 -1.92956 88.04538 -62.07608 23.23731 6.29057 10.73112 1.069 -2.55413 -14.6483 -18.04569 -0.54847 -12.20227 -3.50523 -0.3465 18.3707 -6.70585 -2.25442 3.22605 10.04514
-0.08555 0.57865 0.10415 166.83816 0 -4.37234 4.4218 4.84463 -9.04301 -57.34071 4.77761 4.95872 62.40944 -51.7248 1.66338 84.29826 65.25395 22.26318 -5.81726 59.45122 34.3994 -1.99762 88.0231 -62.1517 23.18197 6.28685 10.73052 1.0565 -2.58398 -14.66081 -18.05435 -0.54275 -12.21873 -3.50507 -0.35113 18.32908 -6.69103 -2.28851 3.21692 10.04436
-0.08558 0.57868 0.10417 166.86375 0 -4.36853 4.43474 4.85587 -9.03626 -57.3352 4.79688 4.99006 62.57793 -51.74924 1.83641 84.34609 65.33687 22.14649 -5.8141 59.48762 34.39305 -2.05534 88.01764 -62.23185 23.13072 6.27679 10.72942 1.04689 -2.59827 -14.67263 -18.05386 -0.53934 -12.2293 -3.50436 -0.35488 18.30624 -6.69024 -2.31446 3.20999 10.04482
-0.08571 0.57867 0.10406 166.82588 0 -4.3545 4.42692 4.85554 -8.99227 -57.35069 4.78347 5.00055 62.75409 -51.6595 2.0052 84.35389 65.39575 21.97366 -5.81954 59.51395 34.41677 -2.07887 88.051 -62.3216 23.09856 6.2474 10.72597 1.04248 -2.57142 -14.68078 -18.02569 -0.54305 -12.22324 -3.50279 -0.35877 18.33394 -6.72448 -2.31826 3.20839 10.04534
-0.08589 0.57865 0.10391 166.76508 0 -4.3375 4.41042 4.85196 -8.93653 -57.37277 4.75721 5.00495 62.93311 -51.53035 2.16973 84.34835 65.44549 21.78246 -5.82805 59.53837 34.45107 -2.09055 88.10025 -62.41498 23.07104 6.2119 10.7221 1.04086 -2.52992 -14.68881 -17.98829 -0.54905 -12.2115 -3.49987 -0.36147 18.37888 -6.77412 -2.31362 3.20904 10.04779
-0.08604 0.57863 0.10378 166.71687 0 -4.3225 4.39711 4.85057 -8.88868 -57.39355 4.73636 5.013 63.10816 -51.41986 2.3302 84.35097 65.49656 21.60497 -5.83516 59.56532 34.48022 -2.10642 88.14303 -62.50612 23.03984 6.18029 10.71876 1.03847 -2.49683 -14.69842 -17.95577 -0.55379 -12.20287 -3.4956 -0.36336 18.41285 -6.8206 -2.31228 3.20898 10.05171
-0.08619 0.57861 0.10365 166.6586 0 -4.30496 4.38661 4.84649 -8.83033 -57.40559 4.71675 5.01815 63.29583 -51.30705 2.51706 84.34493 65.56015 21.40379 -5.84224 59.5853 34.51053 -2.12812 88.1835 -62.60014 23.01427 6.14412 10.71402 1.03424 -2.45599 -14.70136 -17.92075 -0.55937 -12.1918 -3.49964 -0.37083 18.46087 -6.85105 -2.31328 3.20767 10.04577
-0.08636 0.5786 0.1035 166.61611 0 -4.29189 4.36841 4.84708 -8.79066 -57.438 4.69189 5.02737 63.45759 -51.18957 2.64781 84.35354 65.59564 21.24776 -5.85013 59.61955 34.54123 -2.13481 88.23221 -62.68896 22.97864 6.11587 10.7121 1.03442 -2.42768 -14.71837 -17.88847 -0.56377 -12.18465 -3.48628 -0.36651 18.48344 -6.91809 -2.30736 3.20944 10.06076
-0.08658 0.57863 0.10327 166.62347 0 -4.29221 4.33028 4.86172 -8.80923 -57.52513 4.65358 5.05191 63.54447 -51.0667 2.62109 84.40746 65.55092 21.22393 -5.85971 59.69057 34.56809 -2.0998 88.29996 -62.76157 22.91197 6.11201 10.71791 1.04594 -2.44088 -14.7729 -17.86749 -0.56451 -12.18832 -3.42222 -0.32904 18.43108 -7.08714 -2.28471 3.21952 10.13358
-0.08681 0.57867 0.10302 166.64747 0 -4.29703 4.2849 4.88107 -8.84635 -57.63269 4.61084 5.08019 63.60539 -50.94072 2.53848 84.47625 65.47892 21.24584 -5.86998 59.77644 34.59538 -2.0505 88.37526 -62.82895 22.83553 6.11617 10.72662 1.06179 -2.46663 -14.84188 -17.84925 -0.56398 -12.1964 -3.34123 -0.27993 18.35252 -7.2916 -2.25536 3.23255 10.22726
-0.08703 0.5787 0.10277 166.66358 0 -4.29955 4.24341 4.89798 -8.87249 -57.73115 4.57163 5.10498 63.67982 -50.81746 2.48368 84.53716 65.42255 21.24494 -5.87981 59.85761 34.62407 -2.00968 88.44692 -62.89926 22.76502 6.11599 10.73408 1.0757 -2.48456 -14.90511 -17.82873 -0.5639 -12.2034 -3.26988 -0.23674 18.28604 -7.47681 -2.22888 3.24398 10.3111
